<svg xmlns="http://www.w3.org/2000/svg" xmlns:xlink="http://www.w3.org/1999/xlink" width="75" zoomAndPan="magnify" viewBox="0 0 56.25 44.249999" height="59" preserveAspectRatio="xMidYMid meet" version="1.0"><defs><filter x="0%" y="0%" width="100%" height="100%" id="739a5d9ac6"><feColorMatrix values="0 0 0 0 1 0 0 0 0 1 0 0 0 0 1 0 0 0 1 0" color-interpolation-filters="sRGB"/></filter><clipPath id="6bcb43603c"><path d="M 8.765625 6.710938 L 53.351562 6.710938 L 53.351562 43.179688 L 8.765625 43.179688 Z M 8.765625 6.710938 " clip-rule="nonzero"/></clipPath><clipPath id="0407bdbc2e"><path d="M 26.300781 6.710938 L 48.019531 6.710938 C 49.726562 6.710938 51.332031 7.535156 52.328125 8.917969 C 53.328125 10.304688 53.601562 12.085938 53.058594 13.707031 L 45.570312 36.183594 C 44.175781 40.359375 40.265625 43.179688 35.863281 43.179688 L 14.144531 43.179688 C 12.4375 43.179688 10.832031 42.355469 9.832031 40.972656 C 8.835938 39.585938 8.5625 37.804688 9.101562 36.183594 L 16.59375 13.707031 C 17.988281 9.53125 21.898438 6.710938 26.300781 6.710938 Z M 26.300781 6.710938 " clip-rule="nonzero"/></clipPath><clipPath id="af618212e6"><path d="M 0.101562 0 L 49 0 L 49 37 L 0.101562 37 Z M 0.101562 0 " clip-rule="nonzero"/></clipPath><mask id="3fe8baaeb4"><g filter="url(#739a5d9ac6)"><rect x="-5.625" width="67.5" fill="#000000" y="-4.425" height="53.099998" fill-opacity="0.8"/></g></mask><clipPath id="e17048d278"><path d="M 2.09375 0 L 46.679688 0 L 46.679688 36.464844 L 2.09375 36.464844 Z M 2.09375 0 " clip-rule="nonzero"/></clipPath><clipPath id="29cfb2c90c"><path d="M 19.628906 0 L 41.347656 0 C 43.054688 0 44.660156 0.820312 45.660156 2.207031 C 46.660156 3.59375 46.929688 5.375 46.390625 6.996094 L 38.898438 29.46875 C 37.507812 33.648438 33.597656 36.464844 29.191406 36.464844 L 7.476562 36.464844 C 5.765625 36.464844 4.160156 35.644531 3.164062 34.257812 C 2.164062 32.871094 1.890625 31.089844 2.433594 29.46875 L 9.921875 6.996094 C 11.316406 2.816406 15.226562 0 19.628906 0 Z M 19.628906 0 " clip-rule="nonzero"/></clipPath><clipPath id="9675899e8a"><rect x="0" width="49" y="0" height="37"/></clipPath></defs><g clip-path="url(#6bcb43603c)"><g clip-path="url(#0407bdbc2e)"><path fill="#0558ee" d="M 6.769531 6.710938 L 55.34375 6.710938 L 55.34375 43.179688 L 6.769531 43.179688 Z M 6.769531 6.710938 " fill-opacity="1" fill-rule="nonzero"/></g></g><g clip-path="url(#af618212e6)"><g mask="url(#3fe8baaeb4)"><g transform="matrix(1, 0, 0, 1, 0, 0)"><g clip-path="url(#9675899e8a)"><g clip-path="url(#e17048d278)"><g clip-path="url(#29cfb2c90c)"><path fill="#21e8e6" d="M 0.101562 0 L 48.675781 0 L 48.675781 36.464844 L 0.101562 36.464844 Z M 0.101562 0 " fill-opacity="1" fill-rule="nonzero"/></g></g></g></g></g></g></svg>